<?xml version="1.0" encoding="utf-8"?>
<!-- Generator: Adobe Illustrator 27.8.1, SVG Export Plug-In . SVG Version: 6.00 Build 0)  -->
<svg version="1.1" id="Layer_1" xmlns="http://www.w3.org/2000/svg" xmlns:xlink="http://www.w3.org/1999/xlink" x="0px" y="0px"
	 width="720px" height="2592px" viewBox="0 0 720 2592" style="enable-background:new 0 0 720 2592; background: white;" xml:space="preserve">
<style type="text/css">
	.st0{fill:none;stroke:#000000;stroke-miterlimit:10;}
	.st1{font-family:'Helvetica';}
	.st2{font-size:36px;}
	.st3{font-size:14px;}
	.st4{letter-spacing:-1;}
	.st5{letter-spacing:-2;}
	.st6{font-size:23px;}
</style>
<g id="lines">
	<line class="st0" x1="35.91" y1="211.61" x2="684.09" y2="211.61"/>
	<line class="st0" x1="35.91" y1="330.5" x2="684.09" y2="330.5"/>
	<line class="st0" x1="35.91" y1="449.39" x2="684.09" y2="449.39"/>
	<line class="st0" x1="35.91" y1="568.28" x2="684.09" y2="568.28"/>
	<line class="st0" x1="35.91" y1="687.17" x2="684.09" y2="687.17"/>
	<line class="st0" x1="35.91" y1="806.05" x2="684.09" y2="806.05"/>
	<line class="st0" x1="35.91" y1="924.94" x2="684.09" y2="924.94"/>
	<line class="st0" x1="35.91" y1="1043.83" x2="684.09" y2="1043.83"/>
	<line class="st0" x1="35.91" y1="1162.72" x2="684.09" y2="1162.72"/>
	<line class="st0" x1="35.91" y1="1281.61" x2="684.09" y2="1281.61"/>
	<line class="st0" x1="35.91" y1="1400.49" x2="684.09" y2="1400.49"/>
	<line class="st0" x1="35.91" y1="1519.38" x2="684.09" y2="1519.38"/>
	<line class="st0" x1="35.91" y1="1638.27" x2="684.09" y2="1638.27"/>
	<line class="st0" x1="35.91" y1="1757.16" x2="684.09" y2="1757.16"/>
	<line class="st0" x1="35.91" y1="1876.05" x2="684.09" y2="1876.05"/>
	<line class="st0" x1="35.91" y1="1994.93" x2="684.09" y2="1994.93"/>
	<line class="st0" x1="35.91" y1="2113.82" x2="684.09" y2="2113.82"/>
	<line class="st0" x1="35.91" y1="2232.71" x2="684.09" y2="2232.71"/>
	<line class="st0" x1="35.91" y1="2351.6" x2="684.09" y2="2351.6"/>
</g>
<text transform="matrix(1 0 0 1 66.6085 250.6382)"><tspan x="0" y="0" class="st1 st2">6am</tspan><tspan x="-29.23" y="79.2" class="st1 st3">6:45 - Juliet Bu</tspan><tspan x="64.15" y="79.2" class="st1 st3 st4">s</tspan><tspan x="0" y="118.8" class="st1 st2">7am</tspan><tspan x="-19.6" y="198" class="st1 st3">7:45 - Cici Bu</tspan><tspan x="64.43" y="198" class="st1 st3 st4">s</tspan><tspan x="0" y="237.6" class="st1 st2">8am</tspan><tspan x="0" y="356.4" class="st1 st2">9am</tspan><tspan x="-20.02" y="475.2" class="st1 st2">10am</tspan></text>
<text transform="matrix(1 0 0 1 49.8016 846.6913)"><tspan x="0" y="0" class="st1 st2 st5">1</tspan><tspan x="17.37" y="0" class="st1 st2">1am</tspan><tspan x="7.31" y="118.8" class="st1 st2">noon</tspan><tspan x="17.37" y="237.6" class="st1 st2">1pm</tspan><tspan x="17.37" y="356.4" class="st1 st2">2pm</tspan><tspan x="17.37" y="475.2" class="st1 st2">3pm</tspan><tspan x="-11.87" y="495" class="st1 st3">3:05 - Juliet Bu</tspan><tspan x="81.52" y="495" class="st1 st3 st4">s</tspan><tspan x="-2.52" y="534.6" class="st1 st3">3:37 - Cici Bu</tspan><tspan x="81.52" y="534.6" class="st1 st3 st4">s</tspan></text>
<text transform="matrix(1 0 0 1 68.0387 1440.0063)"><tspan x="0" y="0" class="st1 st2">4pm</tspan><tspan x="0" y="118.8" class="st1 st2">5pm</tspan><tspan x="0" y="237.6" class="st1 st2">6pm</tspan><tspan x="0" y="356.4" class="st1 st2">7pm</tspan><tspan x="-10.9" y="415.8" class="st1 st3">7:30 - Dinner</tspan><tspan x="0" y="475.2" class="st1 st2">8pm</tspan></text>
<text transform="matrix(1 0 0 1 67.4941 2033.3225)"><tspan x="0" y="0" class="st1 st2">9pm</tspan><tspan x="-20.02" y="118.8" class="st1 st2">10pm</tspan><tspan x="-17.37" y="237.6" class="st1 st2 st5">1</tspan><tspan x="0" y="237.6" class="st1 st2">1pm</tspan></text>
<text transform="matrix(1 0 0 1 89.5935 70.8914)"><tspan x="0" y="0" class="st1 st6">mon</tspan><tspan x="12.77" y="19.8" class="st1 st6">tue</tspan><tspan x="2.55" y="39.6" class="st1 st6">wed</tspan><tspan x="12.77" y="59.4" class="st1 st6">thu</tspan><tspan x="25.58" y="79.2" class="st1 st6">fri</tspan><tspan x="14.06" y="99" class="st1 st6">sat</tspan><tspan x="7.66" y="118.8" class="st1 st6">sun</tspan></text>
</svg>
